# xmcd CD database file
#
# Track frame offsets:
#	150
#	42364
#	64774
#	77944
#	89989
#	105085
#	119676
#	134793
#	150195
#	163661
#	174824
#	186834
#	199283
#	212254
#	224445
#	240060
#	254706
#	270582
#	285720
#	299757
#
# Disc length: 4157 seconds
#
# Revision: 0
# Processed by: cddbd v1.5.2PL0 Copyright (c) Steve Scherf et al.
# Submitted via: CDex 1.70beta2
#
DISCID=2f103b14
DTITLE=Shorty Rogers - Various Albums
DYEAR=1900
DGENRE=Jazz
TTITLE0=Shorty Rogers - Short Snort (Short Stop)
TTITLE1=Shorty Rogers - Buzzy
TTITLE2=Shorty Rogers - Blues for Brando
TTITLE3=Shorty Rogers - Chino
TTITLE4=Shorty Rogers - The Wild One (Hot Blood)
TTITLE5=Shorty Rogers - Windswept
TTITLE6=Shorty Rogers - Topsy
TTITLE7=Shorty Rogers - Basie Eyes
TTITLE8=Shorty Rogers - It's Sand, Man
TTITLE9=Shorty Rogers - Swing Shift
TTITLE10=Shorty Rogers - Block Buster
TTITLE11=Shorty Rogers - Dynamite
TTITLE12=Shorty Rogers - Powder Puff
TTITLE13=Shorty Rogers - The Pesky Serpent
TTITLE14=Shorty Rogers - Bunny
TTITLE15=Shorty Rogers - Pirouette
TTITLE16=Shorty Rogers - Morpo
TTITLE17=Shorty Rogers - Diablo's Dance
TTITLE18=Shorty Rogers - Mambo del Crow
TTITLE19=Shorty Rogers - Indian Club
EXTD=
EXTT0=
EXTT1=
EXTT2=
EXTT3=
EXTT4=
EXTT5=
EXTT6=
EXTT7=
EXTT8=
EXTT9=
EXTT10=
EXTT11=
EXTT12=
EXTT13=
EXTT14=
EXTT15=
EXTT16=
EXTT17=
EXTT18=
EXTT19=
PLAYORDER=
